<svg width="241" height="51" viewBox="0 0 241 51" fill="none" xmlns="http://www.w3.org/2000/svg">
<path d="M101.128 12.0753C101.885 13.0219 102.449 14.0276 102.819 15.0925C103.17 16.1573 103.345 17.425 103.345 18.8956C103.345 20.3661 103.068 21.9972 102.514 23.7889C101.959 25.5975 101.128 27.3216 100.019 28.9612C98.9287 30.6008 97.4135 31.9446 95.4732 32.9925C93.5329 34.0236 91.3247 34.5391 88.8485 34.5391C85.818 34.5391 83.4342 33.6095 81.6972 31.7502C79.9602 29.874 79.0917 27.516 79.0917 24.6763C79.0917 21.8367 79.683 19.2421 80.8656 16.8926C82.0483 14.5431 83.7299 12.6246 85.9104 11.1372C88.0909 9.66665 90.5301 8.93138 93.228 8.93138C95.0389 8.93138 96.6189 9.21028 97.9678 9.76807C99.3353 10.3428 100.389 11.1118 101.128 12.0753ZM88.1278 31.3445C88.6083 31.6826 89.292 31.8516 90.179 31.8516C91.066 31.8516 91.9068 31.3699 92.7014 30.4064C93.4959 29.4598 94.1058 28.2259 94.5308 26.7047C95.3623 23.7298 95.7781 20.645 95.7781 17.4504C95.7781 13.5627 94.7433 11.6189 92.6736 11.6189C91.6943 11.6189 90.8073 12.0415 90.0127 12.8866C89.2366 13.7149 88.6083 14.8051 88.1278 16.1573C87.1854 18.9125 86.7142 21.862 86.7142 25.0059C86.7142 28.5217 87.1854 30.6346 88.1278 31.3445ZM103.345 42.0693C103.142 41.7651 103.04 41.1143 103.04 40.1171C103.04 39.1198 103.539 36.4238 104.537 32.0291C105.535 27.6343 106.034 24.8792 106.034 23.7636C106.034 22.648 105.914 21.8029 105.674 21.2282C105.452 20.6366 105.221 20.2647 104.981 20.1126L104.62 19.859L104.703 19.3266C106.256 18.8702 108.88 18.642 112.575 18.642C112.797 18.997 112.973 19.4618 113.102 20.0365C114.747 18.9378 116.308 18.3885 117.786 18.3885C119.265 18.3885 120.475 18.904 121.418 19.9351C122.36 20.9662 122.831 22.7156 122.831 25.1834C122.831 27.6343 122.129 29.8063 120.725 31.6995C119.302 33.5926 117.232 34.5391 114.516 34.5391C113.333 34.5391 112.169 34.3278 111.023 33.9053C110.432 36.5759 110.136 38.9339 110.136 40.9791C108.27 41.5876 106.006 41.951 103.345 42.0693ZM112.742 31.5727C113.444 31.5727 114.035 31.0994 114.516 30.1529C115.403 28.4964 115.846 26.4849 115.846 24.1186C115.846 22.7156 115.467 22.0142 114.71 22.0142C114.322 22.0142 113.804 22.1494 113.157 22.4198C113.01 24.3974 112.492 27.3892 111.605 31.3952C112.049 31.5135 112.428 31.5727 112.742 31.5727ZM124.079 27.6935C124.079 24.7693 125.058 22.4874 127.017 20.8479C128.957 19.2083 131.368 18.3885 134.251 18.3885C136.228 18.3885 137.827 18.7857 139.046 19.5801C140.248 20.3746 140.848 21.4395 140.848 22.7748C140.848 23.7382 140.525 24.6003 139.878 25.3609C139.231 26.1215 138.437 26.6962 137.494 27.085C135.535 27.8963 133.826 28.3865 132.366 28.5555L131.396 28.657C131.692 30.212 132.551 30.9895 133.974 30.9895C134.584 30.9895 135.267 30.8712 136.025 30.6346C136.783 30.381 137.374 30.1275 137.799 29.874L138.464 29.519L139.712 31.0403C139.712 31.0403 139.573 31.167 139.296 31.4206C139.13 31.5727 138.76 31.8516 138.187 32.2573C137.596 32.6798 136.986 33.0432 136.358 33.3475C135.729 33.6517 134.916 33.9306 133.919 34.1842C132.939 34.4208 131.96 34.5391 130.98 34.5391C128.781 34.5391 127.081 33.956 125.88 32.7897C124.679 31.6234 124.079 29.9247 124.079 27.6935ZM131.258 26.3244C131.997 26.223 132.745 25.6567 133.503 24.6256C134.26 23.5946 134.639 22.7325 134.639 22.0395C134.639 21.3465 134.417 21 133.974 21C133.327 21 132.727 21.4564 132.172 22.3691C131.636 23.2988 131.331 24.6172 131.258 26.3244ZM142.234 34.3363H141.569C141.569 32.8658 141.938 30.643 142.678 27.6681C143.417 24.6763 143.786 22.9607 143.786 22.5212C143.786 22.0649 143.666 21.6254 143.426 21.2028C143.204 20.7802 142.973 20.4591 142.733 20.2394L142.4 19.9351L142.456 19.4027C143.99 18.9463 146.66 18.7181 150.466 18.7181C150.725 19.259 150.901 19.8252 150.993 20.4168C153.358 19.0984 155.345 18.4392 156.952 18.4392C158.024 18.4392 158.874 18.7604 159.503 19.4027C160.131 20.0619 160.445 20.8479 160.445 21.7606C160.445 22.6734 160.159 24.1355 159.586 26.1469C159.013 28.1583 158.726 29.4598 158.726 30.0514C158.726 30.6599 158.819 30.9642 159.004 30.9642L161.055 30.4571L161.748 32.2319C160.916 32.8066 159.835 33.339 158.505 33.8292C157.174 34.3025 155.955 34.5391 154.846 34.5391C152.647 34.5391 151.547 33.4996 151.547 31.4206C151.547 30.5247 151.815 29.0626 152.351 27.0343C152.906 24.989 153.183 23.7129 153.183 23.2058C153.183 22.6987 152.998 22.4452 152.628 22.4452C152.166 22.4452 151.547 22.6818 150.771 23.1551C150.66 23.5777 150.402 24.6087 149.995 26.2483C149.164 29.6796 148.748 32.1474 148.748 33.6517C147.491 34.1081 145.32 34.3363 142.234 34.3363ZM172.974 34.5391C170.183 34.5391 167.92 33.6179 166.183 31.7755C164.446 29.9331 163.577 27.347 163.577 24.0171C163.577 21.3296 164.141 18.8449 165.268 16.563C166.395 14.2811 168.021 12.4387 170.146 11.0358C172.29 9.63285 174.6 8.93138 177.076 8.93138C179.534 8.93138 181.576 9.3793 183.202 10.2752C184.809 11.171 185.613 12.3457 185.613 13.7994C185.613 15.253 185.179 16.4109 184.31 17.2729C183.276 17.2729 182.084 17.0785 180.735 16.6898C179.386 16.3179 178.379 15.8615 177.713 15.3206L178.434 11.8725C177.898 11.6358 177.372 11.5175 176.854 11.5175C175.357 11.5175 174.036 12.7092 172.89 15.0925C171.745 17.4588 171.172 20.2394 171.172 23.434C171.172 28.2175 172.65 30.6092 175.607 30.6092C177.362 30.6092 179.33 29.7303 181.511 27.9724L183.34 29.6458C183.119 29.95 182.583 30.4571 181.733 31.167C180.883 31.86 180.079 32.4178 179.321 32.8404C178.545 33.263 177.584 33.6517 176.438 34.0067C175.293 34.3617 174.138 34.5391 172.974 34.5391ZM196.922 9.94555C196.922 11.602 196.257 15.0079 194.927 20.1633C197.162 19.0139 198.918 18.4392 200.193 18.4392C201.468 18.4392 202.42 18.7519 203.048 19.3773C203.658 20.0027 203.963 20.7802 203.963 21.7099C203.963 22.6565 203.686 24.127 203.131 26.1215C202.558 28.1161 202.272 29.426 202.272 30.0514C202.272 30.6599 202.374 30.9642 202.577 30.9642L204.6 30.4571L205.293 32.2319C204.499 32.7897 203.39 33.3137 201.967 33.8039C200.563 34.294 199.315 34.5391 198.225 34.5391C196.137 34.5391 195.093 33.4574 195.093 31.2938C195.093 30.2965 195.361 28.826 195.897 26.8822C196.451 24.9383 196.728 23.7129 196.728 23.2058C196.728 22.6987 196.534 22.4452 196.146 22.4452C195.592 22.4452 194.927 22.6818 194.15 23.1551C192.986 27.6681 192.404 30.8121 192.404 32.5869L192.46 33.4489C189.817 34.0912 187.443 34.4124 185.336 34.4124C185.188 34.3448 185.114 33.9644 185.114 33.2714C185.114 31.8009 185.881 28.1668 187.415 22.3691C188.967 16.5714 189.743 12.6669 189.743 10.6555C189.743 10.047 189.688 9.50607 189.577 9.0328C192.09 8.39049 194.446 8.06934 196.645 8.06934C196.83 8.475 196.922 9.10041 196.922 9.94555ZM225.361 19.7576C224.807 21.2958 224.336 23.1213 223.948 25.2341C223.56 27.347 223.366 28.826 223.366 29.6711C223.366 30.5163 223.513 30.9388 223.809 30.9388L225.749 30.4318L226.442 32.2065C225.611 32.7981 224.557 33.339 223.282 33.8292C222.007 34.3025 220.871 34.5391 219.873 34.5391C218.191 34.5391 217.138 33.8799 216.713 32.5615C214.662 33.8799 212.851 34.5391 211.28 34.5391C209.728 34.5391 208.518 34.0236 207.649 32.9925C206.799 31.9446 206.374 30.4487 206.374 28.5048C206.374 25.8342 207.123 23.4847 208.619 21.4564C210.135 19.4111 212.121 18.3885 214.579 18.3885C215.909 18.3885 217.277 18.735 218.681 19.428C218.884 19.0055 219.051 18.7012 219.18 18.5153C221.046 18.5153 223.107 18.9294 225.361 19.7576ZM213.664 28.0738C213.664 29.2739 213.757 30.0261 213.941 30.3303C214.126 30.6346 214.468 30.7867 214.967 30.7867C215.447 30.7867 215.919 30.6092 216.381 30.2543C216.491 27.516 216.99 24.6425 217.877 21.6338C217.489 21.4141 217.037 21.3042 216.519 21.3042C216.02 21.3042 215.567 21.5662 215.161 22.0902C214.773 22.6142 214.468 23.265 214.246 24.0425C213.858 25.5299 213.664 26.8737 213.664 28.0738ZM240.301 21.5578L236.948 21.3042C235.913 25.5468 235.358 28.0062 235.284 28.6823C235.192 29.3753 235.146 29.9416 235.146 30.381C235.146 30.8205 235.294 31.0403 235.589 31.0403C235.959 31.0403 236.652 30.829 237.668 30.4064L238.583 32.1051C237.751 32.7812 236.707 33.3559 235.451 33.8292C234.176 34.3025 232.947 34.5391 231.764 34.5391C230.6 34.5391 229.667 34.2687 228.965 33.7278C228.262 33.17 227.911 32.3756 227.911 31.3445C227.911 30.3303 228.235 28.6992 228.882 26.4511C229.528 24.2031 229.953 22.5381 230.157 21.4564C229.547 21.5071 228.632 21.5916 227.412 21.7099C227.302 21.2028 227.246 20.7295 227.246 20.2901C227.246 19.8506 227.311 19.3604 227.44 18.8195H230.545C230.582 18.5153 230.6 17.4842 230.6 15.7263L230.517 14.2811C233.03 13.5205 235.423 13.1402 237.696 13.1402C237.881 13.5289 237.973 14.1882 237.973 15.1178C237.973 16.0475 237.807 17.2814 237.474 18.8195H240.967C240.967 19.7999 240.745 20.7126 240.301 21.5578Z" fill="#261624"/>
<path d="M67.1331 27.7629C66.5001 16.6304 56.3702 7.91022 44.1564 7.91022C43.1171 7.91022 42.0466 7.97982 41.0202 8.10717C36.8247 3.1788 30.266 0 22.9247 0C10.711 0 0.639873 8.72015 0.00691705 19.8527L0 43.0906L7.45106 36.4198C11.6543 39.93 17.1936 41.916 22.9083 41.916C23.9424 41.9145 24.9752 41.8489 25.9996 41.7199C30.33 46.8112 37.0089 49.8262 44.0898 49.8262C49.8046 49.8262 55.4787 47.8402 59.6811 44.33L67.268 51V27.8451L67.1331 27.7629V27.7629ZM8.71611 33.1207L7.4208 31.9414L3.28065 35.5679V19.9768C4.14534 10.5456 12.4637 3.16377 22.821 3.16377C33.5475 3.16377 42.3172 11.146 42.3172 20.9584C42.3172 30.7701 33.6124 38.7522 22.8867 38.7522C17.4556 38.7515 12.4369 36.752 8.71611 33.1207V33.1207ZM43.5607 30.2457H54.7109C54.0693 34.9913 49.5504 38.7372 44.0907 38.7372C41.8261 38.7372 39.6799 38.1464 37.8788 36.9647C40.2428 35.0941 42.1893 32.6185 43.5607 30.2457ZM63.8092 43.4781L59.6241 39.8517L58.3495 41.0302C54.6279 44.6622 49.5547 46.6617 44.1236 46.6617C41.4386 46.6587 38.7832 46.1492 36.3232 45.165C33.8633 44.1807 31.6517 42.743 29.8267 40.9416C31.934 40.3304 33.9328 39.4418 35.7603 38.3038C38.1148 40.0486 41.2035 41.0017 44.2809 41.0017C51.611 41.0017 57.7563 35.5474 57.7563 28.8433V27.8728H44.613C44.9969 27.0819 45.2952 25.6511 45.4984 24.5461C46.1046 25.3916 47.1465 25.8978 48.3346 25.8978C50.2084 25.8978 51.7277 24.4813 51.7277 22.7673C51.7277 21.0533 50.2084 19.6502 48.3346 19.6502C47.858 19.6499 47.3866 19.7422 46.9519 19.9211C46.5172 20.1 46.1291 20.3614 45.8132 20.6879C45.7704 17.3398 44.8462 14.0505 43.1188 11.0985C43.4422 11.0843 43.8996 11.0748 44.2239 11.0748C54.5803 11.0756 62.9445 18.4559 63.8092 27.8871V43.4781Z" fill="url(#paint0_linear)"/>
<path d="M34.9042 18.8885C34.5602 18.8885 34.2303 19.0135 33.9871 19.236C33.7438 19.4585 33.6072 19.7602 33.6072 20.0749C33.6072 25.4715 28.8081 29.8612 22.9083 29.8612C17.0085 29.8612 12.2095 25.4715 12.2095 20.0749C12.2095 19.7602 12.0728 19.4585 11.8296 19.236C11.5863 19.0135 11.2564 18.8885 10.9124 18.8885C10.5684 18.8885 10.2385 19.0135 9.99528 19.236C9.75204 19.4585 9.61539 19.7602 9.61539 20.0749C9.61539 26.7797 15.5783 32.2341 22.9083 32.2341C30.2383 32.2341 36.2012 26.7797 36.2012 20.0749C36.2012 19.7602 36.0646 19.4585 35.8214 19.236C35.5781 19.0135 35.2482 18.8885 34.9042 18.8885V18.8885Z" fill="url(#paint1_linear)"/>
<path d="M17.4694 17.0757C19.3433 17.0757 20.8625 15.6861 20.8625 13.972C20.8625 12.2579 19.3433 10.8683 17.4694 10.8683C15.5955 10.8683 14.0763 12.2579 14.0763 13.972C14.0763 15.6861 15.5955 17.0757 17.4694 17.0757Z" fill="url(#paint2_linear)"/>
<path d="M23.8361 16.7996H30.7286C31.0726 16.7996 31.4025 16.6746 31.6458 16.4521C31.889 16.2296 32.0256 15.9279 32.0256 15.6132C32.0256 15.2985 31.889 14.9968 31.6458 14.7743C31.4025 14.5518 31.0726 14.4268 30.7286 14.4268H28.5634L29.2993 13.9736C29.9149 13.639 30.1181 12.8844 29.7524 12.3205C29.3866 11.7574 28.5911 11.5572 27.9746 11.8926L23.1729 14.4916C22.6705 14.7645 22.4293 15.3609 22.5841 15.8766C22.7397 16.3923 23.2516 16.7996 23.8361 16.7996V16.7996Z" fill="url(#paint3_linear)"/>
<defs>
<linearGradient id="paint0_linear" x1="-7.39798" y1="2.42969" x2="51.5138" y2="32.4622" gradientUnits="userSpaceOnUse">
<stop stop-color="#E98C00"/>
<stop offset="1" stop-color="#8F5BFE"/>
</linearGradient>
<linearGradient id="paint1_linear" x1="-7.41044" y1="23.2655" x2="15.8729" y2="35.1351" gradientUnits="userSpaceOnUse">
<stop stop-color="#E98C00"/>
<stop offset="1" stop-color="#8F5BFE"/>
</linearGradient>
<linearGradient id="paint2_linear" x1="0.338068" y1="17.7213" x2="6.28119" y2="20.751" gradientUnits="userSpaceOnUse">
<stop stop-color="#E98C00"/>
<stop offset="1" stop-color="#8F5BFE"/>
</linearGradient>
<linearGradient id="paint3_linear" x1="7.6088" y1="21.7725" x2="15.9182" y2="26.0085" gradientUnits="userSpaceOnUse">
<stop stop-color="#E98C00"/>
<stop offset="1" stop-color="#8F5BFE"/>
</linearGradient>
</defs>
</svg>
